ffmpeg started on 2025-06-23 at 20:00:32
Report written to "D:\Convert\FFMetrics\reports\psnr_report-6.txt"
Log level: 32
Command line:
ffmpeg -hide_banner -nostdin -i "G:\\\xc0\xed\xe8\xec\xe5\\[\xd2\xee\xef-4]\\\xcc\xee\xe6\xe5\xf2, \xff \xe2\xf1\xf2\xf0\xe5\xf7\xf3 \xf2\xe5\xe1\xff \xe2 \xef\xee\xe4\xe7\xe5\xec\xe5\xeb\xfc\xe5\\\xd2\xc2-1\\DanMachi_[06]_[AniLibria_TV]_[HDTVRip_720p]_HEVC.mkv" -i "G:\\\xc0\xed\xe8\xec\xe5\\[\xd2\xee\xef-4]\\\xcc\xee\xe6\xe5\xf2, \xff \xe2\xf1\xf2\xf0\xe5\xf7\xf3 \xf2\xe5\xe1\xff \xe2 \xef\xee\xe4\xe7\xe5\xec\xe5\xeb\xfc\xe5\\\xd2\xc2-1\\DanMachi_[06]_[AniLibria_TV]_[HDTVRip_720p].mkv" -lavfi "[0:v]settb=AVTB,setpts=PTS-STARTPTS,format=pix_fmts=yuv420p10,fps=24000/1001,scale=1280:720:flags=bicubic[main];[1:v]settb=AVTB,setpts=PTS-STARTPTS,format=pix_fmts=yuv420p,fps=24000/1001,scale=1280:720:flags=bicubic[ref];[main][ref]psnr=eof_action=endall:stats_file='D\\:/Convert/FFMetrics/logs/psnr_logfile-6.txt'" -f null -
Input #0, matroska,webm, from 'G:\Аниме\[Топ-4]\Может, я встречу тебя в подземелье\ТВ-1\DanMachi_[06]_[AniLibria_TV]_[HDTVRip_720p]_HEVC.mkv':
  Metadata:
    ENCODER         : Lavf61.7.100
  Duration: 00:23:40.93, start: -0.021000, bitrate: 604 kb/s
  Stream #0:0(jpn): Video: hevc (Main 10), yuv420p10le(tv, bt709, progressive), 1280x720 [SAR 1:1 DAR 16:9], 23.98 fps, 23.98 tbr, 1k tbn (default)
      Metadata:
        title           : [HorribleSubs]
        ENCODER         : Lavc61.19.100 libx265
        BPS             : 406911
        DURATION        : 00:23:40.879708375
        NUMBER_OF_FRAMES: 34067
        NUMBER_OF_BYTES : 72271485
        _STATISTICS_WRITING_APP: mkvpropedit v66.0.0 ('Josie') 64-bit
        _STATISTICS_WRITING_DATE_UTC: 2025-06-23 08:14:12
        _STATISTICS_TAGS: BPS DURATION NUMBER_OF_FRAMES NUMBER_OF_BYTES
  Stream #0:1(rus): Audio: aac (LC), 48000 Hz, stereo, fltp (default)
      Metadata:
        title           : Metacarmex & Say
        ENCODER         : Lavc61.19.100 aac
        BPS             : 193724
        DURATION        : 00:23:40.906000000
        NUMBER_OF_FRAMES: 66606
        NUMBER_OF_BYTES : 34407952
        _STATISTICS_WRITING_APP: mkvpropedit v66.0.0 ('Josie') 64-bit
        _STATISTICS_WRITING_DATE_UTC: 2025-06-23 08:14:12
        _STATISTICS_TAGS: BPS DURATION NUMBER_OF_FRAMES NUMBER_OF_BYTES
  Stream #0:2(rus): Subtitle: ass (ssa) (default)
      Metadata:
        title           : Надписи
        BPS             : 3
        DURATION        : 00:21:54.150000000
        NUMBER_OF_FRAMES: 5
        NUMBER_OF_BYTES : 508
        _STATISTICS_WRITING_APP: mkvpropedit v66.0.0 ('Josie') 64-bit
        _STATISTICS_WRITING_DATE_UTC: 2025-06-23 08:14:12
        _STATISTICS_TAGS: BPS DURATION NUMBER_OF_FRAMES NUMBER_OF_BYTES
  Stream #0:3(rus): Subtitle: ass (ssa)
      Metadata:
        title           : Полные
        BPS             : 132
        DURATION        : 00:23:36.650000000
        NUMBER_OF_FRAMES: 351
        NUMBER_OF_BYTES : 23453
        _STATISTICS_WRITING_APP: mkvpropedit v66.0.0 ('Josie') 64-bit
        _STATISTICS_WRITING_DATE_UTC: 2025-06-23 08:14:12
        _STATISTICS_TAGS: BPS DURATION NUMBER_OF_FRAMES NUMBER_OF_BYTES
Input #1, matroska,webm, from 'G:\Аниме\[Топ-4]\Может, я встречу тебя в подземелье\ТВ-1\DanMachi_[06]_[AniLibria_TV]_[HDTVRip_720p].mkv':
  Metadata:
    encoder         : libebml v1.4.2 + libmatroska v1.6.4
    creation_time   : 2025-01-14T16:49:27.000000Z
  Duration: 00:23:40.91, start: 0.000000, bitrate: 1968 kb/s
  Stream #1:0(jpn): Video: h264 (High), yuv420p(progressive), 1280x720, SAR 1:1 DAR 16:9, 23.98 fps, 23.98 tbr, 1k tbn (default)
      Metadata:
        title           : [HorribleSubs]
        BPS             : 1771087
        DURATION        : 00:23:40.880000000
        NUMBER_OF_FRAMES: 34067
        NUMBER_OF_BYTES : 314562935
        _STATISTICS_WRITING_APP: mkvmerge v66.0.0 ('Josie') 64-bit
        _STATISTICS_WRITING_DATE_UTC: 2025-01-14 16:49:27
        _STATISTICS_TAGS: BPS DURATION NUMBER_OF_FRAMES NUMBER_OF_BYTES
  Stream #1:1(rus): Audio: aac (LC), 48000 Hz, stereo, fltp (default)
      Metadata:
        title           : Metacarmex & Say
        BPS             : 192090
        DURATION        : 00:23:40.906000000
        NUMBER_OF_FRAMES: 66605
        NUMBER_OF_BYTES : 34117874
        _STATISTICS_WRITING_APP: mkvmerge v66.0.0 ('Josie') 64-bit
        _STATISTICS_WRITING_DATE_UTC: 2025-01-14 16:49:27
        _STATISTICS_TAGS: BPS DURATION NUMBER_OF_FRAMES NUMBER_OF_BYTES
  Stream #1:2(rus): Subtitle: ass (ssa) (default)
      Metadata:
        title           : Надписи
        BPS             : 3
        DURATION        : 00:21:54.150000000
        NUMBER_OF_FRAMES: 5
        NUMBER_OF_BYTES : 508
        _STATISTICS_WRITING_APP: mkvmerge v66.0.0 ('Josie') 64-bit
        _STATISTICS_WRITING_DATE_UTC: 2025-01-14 16:49:27
        _STATISTICS_TAGS: BPS DURATION NUMBER_OF_FRAMES NUMBER_OF_BYTES
  Stream #1:3(rus): Subtitle: ass (ssa)
      Metadata:
        title           : Полные
        BPS             : 132
        DURATION        : 00:23:36.650000000
        NUMBER_OF_FRAMES: 351
        NUMBER_OF_BYTES : 23453
        _STATISTICS_WRITING_APP: mkvmerge v66.0.0 ('Josie') 64-bit
        _STATISTICS_WRITING_DATE_UTC: 2025-01-14 16:49:27
        _STATISTICS_TAGS: BPS DURATION NUMBER_OF_FRAMES NUMBER_OF_BYTES
  Stream #1:4: Attachment: ttf
      Metadata:
        filename        : bonzai.ttf
        mimetype        : application/x-truetype-font
  Stream #1:5: Attachment: ttf
      Metadata:
        filename        : ChinaCyr.ttf
        mimetype        : application/x-truetype-font
  Stream #1:6: Attachment: ttf
      Metadata:
        filename        : TkhO4vNj.ttf
        mimetype        : application/x-truetype-font
  Stream #1:7: Attachment: ttf
      Metadata:
        filename        : OpenSans-Semibold.ttf
        mimetype        : application/x-truetype-font
Stream mapping:
  Stream #0:0 (hevc) -> settb:default
  Stream #1:0 (h264) -> settb:default
  psnr:default -> Stream #0:0 (wrapped_avframe)
  Stream #0:1 -> #0:1 (aac (native) -> pcm_s16le (native))
[swscaler @ 0000020e942ab000] No accelerated colorspace conversion found from yuv420p to bgr48le.
[swscaler @ 0000020e9434da80] No accelerated colorspace conversion found from yuv420p to bgr48le.
[swscaler @ 0000020e943bf4c0] No accelerated colorspace conversion found from yuv420p to bgr48le.
[swscaler @ 0000020e94499b00] No accelerated colorspace conversion found from yuv420p to bgr48le.
[swscaler @ 0000020e945c9e80] No accelerated colorspace conversion found from yuv420p to bgr48le.
[swscaler @ 0000020e94705880] No accelerated colorspace conversion found from yuv420p to bgr48le.
[swscaler @ 0000020e947a8fc0] No accelerated colorspace conversion found from yuv420p to bgr48le.
[swscaler @ 0000020e948eb040] No accelerated colorspace conversion found from yuv420p to bgr48le.
[swscaler @ 0000020e94a41340] No accelerated colorspace conversion found from yuv420p to bgr48le.
[swscaler @ 0000020e94bb0bc0] No accelerated colorspace conversion found from yuv420p to bgr48le.
[swscaler @ 0000020e94d1d7c0] No accelerated colorspace conversion found from yuv420p to bgr48le.
[swscaler @ 0000020e94d3f400] No accelerated colorspace conversion found from yuv420p to bgr48le.
[swscaler @ 0000020e94d61040] No accelerated colorspace conversion found from yuv420p to bgr48le.
[swscaler @ 0000020e98937040] No accelerated colorspace conversion found from yuv420p to bgr48le.
[swscaler @ 0000020e9899a040] No accelerated colorspace conversion found from yuv420p to bgr48le.
[swscaler @ 0000020e98a05040] No accelerated colorspace conversion found from yuv420p to bgr48le.
Output #0, null, to 'pipe:':
  Metadata:
    encoder         : Lavf61.7.100
  Stream #0:0: Video: wrapped_avframe, yuv420p10le(tv, bt709, progressive), 1280x720 [SAR 1:1 DAR 16:9], q=2-31, 200 kb/s, 23.98 fps, 23.98 tbn
      Metadata:
        encoder         : Lavc61.19.100 wrapped_avframe
  Stream #0:1(rus): Audio: pcm_s16le, 48000 Hz, stereo, s16, 1536 kb/s (default)
      Metadata:
        title           : Metacarmex & Say
        _STATISTICS_TAGS: BPS DURATION NUMBER_OF_FRAMES NUMBER_OF_BYTES
        BPS             : 193724
        DURATION        : 00:23:40.906000000
        NUMBER_OF_FRAMES: 66606
        NUMBER_OF_BYTES : 34407952
        _STATISTICS_WRITING_APP: mkvpropedit v66.0.0 ('Josie') 64-bit
        _STATISTICS_WRITING_DATE_UTC: 2025-06-23 08:14:12
        encoder         : Lavc61.19.100 pcm_s16le
frame=   84 fps=0.0 q=-0.0 size=N/A time=00:00:03.50 bitrate=N/A speed=6.78x    frame=  172 fps=167 q=-0.0 size=N/A time=00:00:07.17 bitrate=N/A speed=6.98x    frame=  276 fps=179 q=-0.0 size=N/A time=00:00:11.51 bitrate=N/A speed=7.48x    frame=  377 fps=182 q=-0.0 size=N/A time=00:00:15.72 bitrate=N/A speed=7.61x    frame=  472 fps=183 q=-0.0 size=N/A time=00:00:19.68 bitrate=N/A speed=7.64x    frame=  567 fps=184 q=-0.0 size=N/A time=00:00:23.64 bitrate=N/A speed=7.65x    frame=  666 fps=185 q=-0.0 size=N/A time=00:00:27.77 bitrate=N/A speed=7.71x    frame=  766 fps=186 q=-0.0 size=N/A time=00:00:31.94 bitrate=N/A speed=7.74x    frame=  865 fps=186 q=-0.0 size=N/A time=00:00:36.07 bitrate=N/A speed=7.78x    frame=  961 fps=187 q=-0.0 size=N/A time=00:00:40.08 bitrate=N/A speed=7.78x    frame= 1059 fps=187 q=-0.0 size=N/A time=00:00:44.16 bitrate=N/A speed= 7.8x    frame= 1152 fps=186 q=-0.0 size=N/A time=00:00:48.04 bitrate=N/A speed=7.76x    frame= 1253 fps=187 q=-0.0 size=N/A time=00:00:52.26 bitrate=N/A speed= 7.8x    frame= 1352 fps=187 q=-0.0 size=N/A time=00:00:56.38 bitrate=N/A speed=7.82x    frame= 1450 fps=187 q=-0.0 size=N/A time=00:01:00.47 bitrate=N/A speed=7.81x    frame= 1545 fps=187 q=-0.0 size=N/A time=00:01:04.43 bitrate=N/A speed=7.81x    frame= 1642 fps=187 q=-0.0 size=N/A time=00:01:08.48 bitrate=N/A speed=7.82x    frame= 1730 fps=187 q=-0.0 size=N/A time=00:01:12.15 bitrate=N/A speed=7.78x    frame= 1837 fps=187 q=-0.0 size=N/A time=00:01:16.61 bitrate=N/A speed=7.82x    frame= 1930 fps=187 q=-0.0 size=N/A time=00:01:20.49 bitrate=N/A speed=7.81x    frame= 2027 fps=187 q=-0.0 size=N/A time=00:01:24.54 bitrate=N/A speed=7.81x    frame= 2128 fps=188 q=-0.0 size=N/A time=00:01:28.75 bitrate=N/A speed=7.83x    frame= 2230 fps=188 q=-0.0 size=N/A time=00:01:33.00 bitrate=N/A speed=7.84x    frame= 2328 fps=188 q=-0.0 size=N/A time=00:01:37.09 bitrate=N/A speed=7.85x    frame= 2425 fps=188 q=-0.0 size=N/A time=00:01:41.14 bitrate=N/A speed=7.85x    frame= 2522 fps=188 q=-0.0 size=N/A time=00:01:45.18 bitrate=N/A speed=7.85x    frame= 2622 fps=188 q=-0.0 size=N/A time=00:01:49.35 bitrate=N/A speed=7.85x    frame= 2717 fps=188 q=-0.0 size=N/A time=00:01:53.32 bitrate=N/A speed=7.85x    frame= 2812 fps=188 q=-0.0 size=N/A time=00:01:57.28 bitrate=N/A speed=7.85x    frame= 2905 fps=188 q=-0.0 size=N/A time=00:02:01.16 bitrate=N/A speed=7.83x    frame= 3007 fps=188 q=-0.0 size=N/A time=00:02:05.41 bitrate=N/A speed=7.85x    frame= 3095 fps=188 q=-0.0 size=N/A time=00:02:09.08 bitrate=N/A speed=7.82x    frame= 3198 fps=188 q=-0.0 size=N/A time=00:02:13.38 bitrate=N/A speed=7.84x    frame= 3298 fps=188 q=-0.0 size=N/A time=00:02:17.55 bitrate=N/A speed=7.84x    frame= 3388 fps=188 q=-0.0 size=N/A time=00:02:21.30 bitrate=N/A speed=7.83x    frame= 3486 fps=188 q=-0.0 size=N/A time=00:02:25.39 bitrate=N/A speed=7.83x    frame= 3576 fps=188 q=-0.0 size=N/A time=00:02:29.14 bitrate=N/A speed=7.82x    frame= 3678 fps=188 q=-0.0 size=N/A time=00:02:33.40 bitrate=N/A speed=7.83x    frame= 3771 fps=188 q=-0.0 size=N/A time=00:02:37.28 bitrate=N/A speed=7.82x    frame= 3873 fps=188 q=-0.0 size=N/A time=00:02:41.53 bitrate=N/A speed=7.83x    frame= 3964 fps=188 q=-0.0 size=N/A time=00:02:45.33 bitrate=N/A speed=7.82x    frame= 4067 fps=188 q=-0.0 size=N/A time=00:02:49.62 bitrate=N/A speed=7.83x    frame= 4164 fps=188 q=-0.0 size=N/A time=00:02:53.67 bitrate=N/A speed=7.83x    frame= 4258 fps=188 q=-0.0 size=N/A time=00:02:57.59 bitrate=N/A speed=7.83x    frame= 4347 fps=187 q=-0.0 size=N/A time=00:03:01.30 bitrate=N/A speed=7.81x    frame= 4451 fps=188 q=-0.0 size=N/A time=00:03:05.64 bitrate=N/A speed=7.83x    frame= 4547 fps=188 q=-0.0 size=N/A time=00:03:09.64 bitrate=N/A speed=7.83x    frame= 4636 fps=187 q=-0.0 size=N/A time=00:03:13.35 bitrate=N/A speed=7.81x    frame= 4741 fps=188 q=-0.0 size=N/A time=00:03:17.73 bitrate=N/A speed=7.83x    frame= 4835 fps=188 q=-0.0 size=N/A time=00:03:21.65 bitrate=N/A speed=7.82x    frame= 4936 fps=188 q=-0.0 size=N/A time=00:03:25.87 bitrate=N/A speed=7.83x    frame= 5034 fps=188 q=-0.0 size=N/A time=00:03:29.95 bitrate=N/A speed=7.83x    frame= 5135 fps=188 q=-0.0 size=N/A time=00:03:34.17 bitrate=N/A speed=7.84x    frame= 5232 fps=188 q=-0.0 size=N/A time=00:03:38.21 bitrate=N/A speed=7.84x    frame= 5328 fps=188 q=-0.0 size=N/A time=00:03:42.22 bitrate=N/A speed=7.84x    frame= 5429 fps=188 q=-0.0 size=N/A time=00:03:46.43 bitrate=N/A speed=7.84x    frame= 5530 fps=188 q=-0.0 size=N/A time=00:03:50.64 bitrate=N/A speed=7.85x    frame= 5624 fps=188 q=-0.0 size=N/A time=00:03:54.56 bitrate=N/A speed=7.84x    frame= 5723 fps=188 q=-0.0 size=N/A time=00:03:58.69 bitrate=N/A speed=7.85x    frame= 5823 fps=188 q=-0.0 size=N/A time=00:04:02.86 bitrate=N/A speed=7.85x    frame= 5918 fps=188 q=-0.0 size=N/A time=00:04:06.82 bitrate=N/A speed=7.85x    frame= 6014 fps=188 q=-0.0 size=N/A time=00:04:10.83 bitrate=N/A speed=7.85x    frame= 6115 fps=188 q=-0.0 size=N/A time=00:04:15.04 bitrate=N/A speed=7.85x    frame= 6213 fps=188 q=-0.0 size=N/A time=00:04:19.13 bitrate=N/A speed=7.85x    frame= 6309 fps=188 q=-0.0 size=N/A time=00:04:23.13 bitrate=N/A speed=7.85x    frame= 6405 fps=188 q=-0.0 size=N/A time=00:04:27.14 bitrate=N/A speed=7.85x    frame= 6500 fps=188 q=-0.0 size=N/A time=00:04:31.10 bitrate=N/A speed=7.85x    frame= 6601 fps=188 q=-0.0 size=N/A time=00:04:35.31 bitrate=N/A speed=7.85x    frame= 6702 fps=188 q=-0.0 size=N/A time=00:04:39.52 bitrate=N/A speed=7.86x    frame= 6800 fps=188 q=-0.0 size=N/A time=00:04:43.61 bitrate=N/A speed=7.86x    frame= 6890 fps=188 q=-0.0 size=N/A time=00:04:47.37 bitrate=N/A speed=7.85x    frame= 7001 fps=189 q=-0.0 size=N/A time=00:04:52.00 bitrate=N/A speed=7.86x    frame= 7094 fps=188 q=-0.0 size=N/A time=00:04:55.87 bitrate=N/A speed=7.86x    frame= 7189 fps=188 q=-0.0 size=N/A time=00:04:59.84 bitrate=N/A speed=7.86x    frame= 7297 fps=189 q=-0.0 size=N/A time=00:05:04.34 bitrate=N/A speed=7.87x    frame= 7393 fps=189 q=-0.0 size=N/A time=00:05:08.34 bitrate=N/A speed=7.87x    frame= 7487 fps=189 q=-0.0 size=N/A time=00:05:12.27 bitrate=N/A speed=7.87x    frame= 7589 fps=189 q=-0.0 size=N/A time=00:05:16.52 bitrate=N/A speed=7.87x    frame= 7688 fps=189 q=-0.0 size=N/A time=00:05:20.65 bitrate=N/A speed=7.87x    frame= 7783 fps=189 q=-0.0 size=N/A time=00:05:24.61 bitrate=N/A speed=7.87x    frame= 7881 fps=189 q=-0.0 size=N/A time=00:05:28.70 bitrate=N/A speed=7.87x    frame= 7975 fps=189 q=-0.0 size=N/A time=00:05:32.62 bitrate=N/A speed=7.87x    frame= 8080 fps=189 q=-0.0 size=N/A time=00:05:37.00 bitrate=N/A speed=7.87x    frame= 8175 fps=189 q=-0.0 size=N/A time=00:05:40.96 bitrate=N/A speed=7.87x    frame= 8272 fps=189 q=-0.0 size=N/A time=00:05:45.01 bitrate=N/A speed=7.87x    frame= 8367 fps=189 q=-0.0 size=N/A time=00:05:48.97 bitrate=N/A speed=7.87x    frame= 8463 fps=189 q=-0.0 size=N/A time=00:05:52.97 bitrate=N/A speed=7.87x    frame= 8565 fps=189 q=-0.0 size=N/A time=00:05:57.23 bitrate=N/A speed=7.87x    frame= 8661 fps=189 q=-0.0 size=N/A time=00:06:01.23 bitrate=N/A speed=7.87x    frame= 8756 fps=189 q=-0.0 size=N/A time=00:06:05.19 bitrate=N/A speed=7.87x    frame= 8854 fps=189 q=-0.0 size=N/A time=00:06:09.28 bitrate=N/A speed=7.87x    frame= 8951 fps=189 q=-0.0 size=N/A time=00:06:13.33 bitrate=N/A speed=7.87x    frame= 9043 fps=189 q=-0.0 size=N/A time=00:06:17.16 bitrate=N/A speed=7.87x    frame= 9148 fps=189 q=-0.0 size=N/A time=00:06:21.54 bitrate=N/A speed=7.87x    frame= 9245 fps=189 q=-0.0 size=N/A time=00:06:25.59 bitrate=N/A speed=7.87x    frame= 9341 fps=189 q=-0.0 size=N/A time=00:06:29.59 bitrate=N/A speed=7.87x    frame= 9439 fps=189 q=-0.0 size=N/A time=00:06:33.68 bitrate=N/A speed=7.87x    frame= 9539 fps=189 q=-0.0 size=N/A time=00:06:37.85 bitrate=N/A speed=7.87x    frame= 9633 fps=189 q=-0.0 size=N/A time=00:06:41.77 bitrate=N/A speed=7.87x    frame= 9729 fps=189 q=-0.0 size=N/A time=00:06:45.78 bitrate=N/A speed=7.87x    frame= 9832 fps=189 q=-0.0 size=N/A time=00:06:50.07 bitrate=N/A speed=7.88x    frame= 9932 fps=189 q=-0.0 size=N/A time=00:06:54.24 bitrate=N/A speed=7.88x    frame=10027 fps=189 q=-0.0 size=N/A time=00:06:58.20 bitrate=N/A speed=7.87x    frame=10116 fps=189 q=-0.0 size=N/A time=00:07:01.92 bitrate=N/A speed=7.87x    frame=10222 fps=189 q=-0.0 size=N/A time=00:07:06.34 bitrate=N/A speed=7.88x    frame=10322 fps=189 q=-0.0 size=N/A time=00:07:10.51 bitrate=N/A speed=7.88x    frame=10418 fps=189 q=-0.0 size=N/A time=00:07:14.51 bitrate=N/A speed=7.88x    frame=10516 fps=189 q=-0.0 size=N/A time=00:07:18.60 bitrate=N/A speed=7.88x    frame=10615 fps=189 q=-0.0 size=N/A time=00:07:22.73 bitrate=N/A speed=7.88x    frame=10713 fps=189 q=-0.0 size=N/A time=00:07:26.82 bitrate=N/A speed=7.88x    frame=10810 fps=189 q=-0.0 size=N/A time=00:07:30.86 bitrate=N/A speed=7.88x    frame=10903 fps=189 q=-0.0 size=N/A time=00:07:34.74 bitrate=N/A speed=7.88x    frame=10991 fps=189 q=-0.0 size=N/A time=00:07:38.41 bitrate=N/A speed=7.87x    frame=11102 fps=189 q=-0.0 size=N/A time=00:07:43.04 bitrate=N/A speed=7.88x    frame=11192 fps=189 q=-0.0 size=N/A time=00:07:46.79 bitrate=N/A speed=7.87x    frame=11295 fps=189 q=-0.0 size=N/A time=00:07:51.09 bitrate=N/A speed=7.88x    frame=11396 fps=189 q=-0.0 size=N/A time=00:07:55.30 bitrate=N/A speed=7.88x    frame=11491 fps=189 q=-0.0 size=N/A time=00:07:59.27 bitrate=N/A speed=7.88x    frame=11593 fps=189 q=-0.0 size=N/A time=00:08:03.52 bitrate=N/A speed=7.88x    frame=11692 fps=189 q=-0.0 size=N/A time=00:08:07.65 bitrate=N/A speed=7.88x    frame=11793 fps=189 q=-0.0 size=N/A time=00:08:11.86 bitrate=N/A speed=7.88x    frame=11892 fps=189 q=-0.0 size=N/A time=00:08:15.99 bitrate=N/A speed=7.88x    frame=11990 fps=189 q=-0.0 size=N/A time=00:08:20.08 bitrate=N/A speed=7.89x    frame=12090 fps=189 q=-0.0 size=N/A time=00:08:24.25 bitrate=N/A speed=7.89x    frame=12180 fps=189 q=-0.0 size=N/A time=00:08:28.00 bitrate=N/A speed=7.88x    frame=12283 fps=189 q=-0.0 size=N/A time=00:08:32.30 bitrate=N/A speed=7.89x    frame=12372 fps=189 q=-0.0 size=N/A time=00:08:36.01 bitrate=N/A speed=7.88x    frame=12477 fps=189 q=-0.0 size=N/A time=00:08:40.39 bitrate=N/A speed=7.88x    frame=12576 fps=189 q=-0.0 size=N/A time=00:08:44.52 bitrate=N/A speed=7.89x    frame=12675 fps=189 q=-0.0 size=N/A time=00:08:48.65 bitrate=N/A speed=7.89x    frame=12769 fps=189 q=-0.0 size=N/A time=00:08:52.57 bitrate=N/A speed=7.89x    frame=12870 fps=189 q=-0.0 size=N/A time=00:08:56.78 bitrate=N/A speed=7.89x    frame=12968 fps=189 q=-0.0 size=N/A time=00:09:00.87 bitrate=N/A speed=7.89x    frame=13066 fps=189 q=-0.0 size=N/A time=00:09:04.96 bitrate=N/A speed=7.89x    frame=13164 fps=189 q=-0.0 size=N/A time=00:09:09.04 bitrate=N/A speed=7.89x    frame=13260 fps=189 q=-0.0 size=N/A time=00:09:13.05 bitrate=N/A speed=7.89x    frame=13362 fps=189 q=-0.0 size=N/A time=00:09:17.30 bitrate=N/A speed=7.89x    frame=13460 fps=189 q=-0.0 size=N/A time=00:09:21.39 bitrate=N/A speed=7.89x    frame=13560 fps=189 q=-0.0 size=N/A time=00:09:25.56 bitrate=N/A speed=7.89x    frame=13651 fps=189 q=-0.0 size=N/A time=00:09:29.36 bitrate=N/A speed=7.89x    frame=13753 fps=189 q=-0.0 size=N/A time=00:09:33.61 bitrate=N/A speed=7.89x    frame=13847 fps=189 q=-0.0 size=N/A time=00:09:37.53 bitrate=N/A speed=7.89x    frame=13946 fps=189 q=-0.0 size=N/A time=00:09:41.66 bitrate=N/A speed=7.89x    frame=14039 fps=189 q=-0.0 size=N/A time=00:09:45.54 bitrate=N/A speed=7.89x    frame=14138 fps=189 q=-0.0 size=N/A time=00:09:49.67 bitrate=N/A speed=7.89x    frame=14235 fps=189 q=-0.0 size=N/A time=00:09:53.71 bitrate=N/A speed=7.89x    frame=14335 fps=189 q=-0.0 size=N/A time=00:09:57.88 bitrate=N/A speed=7.89x    frame=14434 fps=189 q=-0.0 size=N/A time=00:10:02.01 bitrate=N/A speed=7.89x    frame=14532 fps=189 q=-0.0 size=N/A time=00:10:06.10 bitrate=N/A speed=7.89x    frame=14628 fps=189 q=-0.0 size=N/A time=00:10:10.10 bitrate=N/A speed=7.89x    frame=14730 fps=189 q=-0.0 size=N/A time=00:10:14.36 bitrate=N/A speed=7.89x    frame=14814 fps=189 q=-0.0 size=N/A time=00:10:17.86 bitrate=N/A speed=7.88x    frame=14919 fps=189 q=-0.0 size=N/A time=00:10:22.24 bitrate=N/A speed=7.89x    frame=15027 fps=189 q=-0.0 size=N/A time=00:10:26.75 bitrate=N/A speed=7.89x    frame=15123 fps=189 q=-0.0 size=N/A time=00:10:30.75 bitrate=N/A speed=7.89x    frame=15215 fps=189 q=-0.0 size=N/A time=00:10:34.59 bitrate=N/A speed=7.89x    frame=15314 fps=189 q=-0.0 size=N/A time=00:10:38.72 bitrate=N/A speed=7.89x    frame=15416 fps=189 q=-0.0 size=N/A time=00:10:42.97 bitrate=N/A speed=7.89x    frame=15519 fps=189 q=-0.0 size=N/A time=00:10:47.27 bitrate=N/A speed= 7.9x    frame=15616 fps=189 q=-0.0 size=N/A time=00:10:51.31 bitrate=N/A speed= 7.9x    frame=15706 fps=189 q=-0.0 size=N/A time=00:10:55.07 bitrate=N/A speed=7.89x    frame=15811 fps=189 q=-0.0 size=N/A time=00:10:59.45 bitrate=N/A speed=7.89x    frame=15905 fps=189 q=-0.0 size=N/A time=00:11:03.37 bitrate=N/A speed=7.89x    frame=15996 fps=189 q=-0.0 size=N/A time=00:11:07.16 bitrate=N/A speed=7.89x    frame=16093 fps=189 q=-0.0 size=N/A time=00:11:11.21 bitrate=N/A speed=7.89x    frame=16195 fps=189 q=-0.0 size=N/A time=00:11:15.46 bitrate=N/A speed=7.89x    frame=16290 fps=189 q=-0.0 size=N/A time=00:11:19.42 bitrate=N/A speed=7.89x    frame=16384 fps=189 q=-0.0 size=N/A time=00:11:23.34 bitrate=N/A speed=7.89x    frame=16486 fps=189 q=-0.0 size=N/A time=00:11:27.60 bitrate=N/A speed=7.89x    frame=16570 fps=189 q=-0.0 size=N/A time=00:11:31.10 bitrate=N/A speed=7.88x    frame=16679 fps=189 q=-0.0 size=N/A time=00:11:35.65 bitrate=N/A speed=7.89x    frame=16774 fps=189 q=-0.0 size=N/A time=00:11:39.61 bitrate=N/A speed=7.89x    frame=16875 fps=189 q=-0.0 size=N/A time=00:11:43.82 bitrate=N/A speed=7.89x    frame=16962 fps=189 q=-0.0 size=N/A time=00:11:47.45 bitrate=N/A speed=7.89x    frame=17067 fps=189 q=-0.0 size=N/A time=00:11:51.83 bitrate=N/A speed=7.89x    frame=17164 fps=189 q=-0.0 size=N/A time=00:11:55.88 bitrate=N/A speed=7.89x    frame=17263 fps=189 q=-0.0 size=N/A time=00:12:00.01 bitrate=N/A speed=7.89x    frame=17351 fps=189 q=-0.0 size=N/A time=00:12:03.68 bitrate=N/A speed=7.88x    frame=17457 fps=189 q=-0.0 size=N/A time=00:12:08.10 bitrate=N/A speed=7.89x    frame=17552 fps=189 q=-0.0 size=N/A time=00:12:12.06 bitrate=N/A speed=7.89x    frame=17652 fps=189 q=-0.0 size=N/A time=00:12:16.23 bitrate=N/A speed=7.89x    frame=17748 fps=189 q=-0.0 size=N/A time=00:12:20.23 bitrate=N/A speed=7.89x    frame=17845 fps=189 q=-0.0 size=N/A time=00:12:24.28 bitrate=N/A speed=7.89x    frame=17938 fps=189 q=-0.0 size=N/A time=00:12:28.16 bitrate=N/A speed=7.89x    frame=18035 fps=189 q=-0.0 size=N/A time=00:12:32.20 bitrate=N/A speed=7.89x    frame=18140 fps=189 q=-0.0 size=N/A time=00:12:36.58 bitrate=N/A speed=7.89x    frame=18237 fps=189 q=-0.0 size=N/A time=00:12:40.63 bitrate=N/A speed=7.89x    frame=18336 fps=189 q=-0.0 size=N/A time=00:12:44.76 bitrate=N/A speed=7.89x    frame=18432 fps=189 q=-0.0 size=N/A time=00:12:48.76 bitrate=N/A speed=7.89x    frame=18532 fps=189 q=-0.0 size=N/A time=00:12:52.93 bitrate=N/A speed=7.89x    frame=18624 fps=189 q=-0.0 size=N/A time=00:12:56.77 bitrate=N/A speed=7.89x    frame=18728 fps=189 q=-0.0 size=N/A time=00:13:01.11 bitrate=N/A speed=7.89x    frame=18826 fps=189 q=-0.0 size=N/A time=00:13:05.20 bitrate=N/A speed=7.89x    frame=18913 fps=189 q=-0.0 size=N/A time=00:13:08.82 bitrate=N/A speed=7.89x    frame=19020 fps=189 q=-0.0 size=N/A time=00:13:13.29 bitrate=N/A speed=7.89x    frame=19119 fps=189 q=-0.0 size=N/A time=00:13:17.42 bitrate=N/A speed=7.89x    frame=19216 fps=189 q=-0.0 size=N/A time=00:13:21.46 bitrate=N/A speed=7.89x    frame=19312 fps=189 q=-0.0 size=N/A time=00:13:25.47 bitrate=N/A speed=7.89x    frame=19414 fps=189 q=-0.0 size=N/A time=00:13:29.72 bitrate=N/A speed=7.89x    frame=19510 fps=189 q=-0.0 size=N/A time=00:13:33.72 bitrate=N/A speed=7.89x    frame=19609 fps=189 q=-0.0 size=N/A time=00:13:37.85 bitrate=N/A speed=7.89x    frame=19701 fps=189 q=-0.0 size=N/A time=00:13:41.69 bitrate=N/A speed=7.89x    frame=19806 fps=189 q=-0.0 size=N/A time=00:13:46.07 bitrate=N/A speed=7.89x    frame=19900 fps=189 q=-0.0 size=N/A time=00:13:49.99 bitrate=N/A speed=7.89x    frame=19998 fps=189 q=-0.0 size=N/A time=00:13:54.08 bitrate=N/A speed=7.89x    frame=20096 fps=189 q=-0.0 size=N/A time=00:13:58.17 bitrate=N/A speed=7.89x    frame=20194 fps=189 q=-0.0 size=N/A time=00:14:02.25 bitrate=N/A speed=7.89x    frame=20294 fps=189 q=-0.0 size=N/A time=00:14:06.42 bitrate=N/A speed=7.89x    frame=20391 fps=189 q=-0.0 size=N/A time=00:14:10.47 bitrate=N/A speed=7.89x    frame=20489 fps=189 q=-0.0 size=N/A time=00:14:14.56 bitrate=N/A speed=7.89x    frame=20591 fps=189 q=-0.0 size=N/A time=00:14:18.81 bitrate=N/A speed=7.89x    frame=20687 fps=189 q=-0.0 size=N/A time=00:14:22.82 bitrate=N/A speed=7.89x    frame=20784 fps=189 q=-0.0 size=N/A time=00:14:26.86 bitrate=N/A speed=7.89x    frame=20880 fps=189 q=-0.0 size=N/A time=00:14:30.87 bitrate=N/A speed=7.89x    frame=20969 fps=189 q=-0.0 size=N/A time=00:14:34.58 bitrate=N/A speed=7.89x    frame=21068 fps=189 q=-0.0 size=N/A time=00:14:38.71 bitrate=N/A speed=7.89x    frame=21172 fps=189 q=-0.0 size=N/A time=00:14:43.04 bitrate=N/A speed=7.89x    frame=21273 fps=189 q=-0.0 size=N/A time=00:14:47.26 bitrate=N/A speed=7.89x    frame=21372 fps=189 q=-0.0 size=N/A time=00:14:51.39 bitrate=N/A speed=7.89x    frame=21469 fps=189 q=-0.0 size=N/A time=00:14:55.43 bitrate=N/A speed=7.89x    frame=21562 fps=189 q=-0.0 size=N/A time=00:14:59.31 bitrate=N/A speed=7.89x    frame=21654 fps=189 q=-0.0 size=N/A time=00:15:03.15 bitrate=N/A speed=7.89x    frame=21751 fps=189 q=-0.0 size=N/A time=00:15:07.19 bitrate=N/A speed=7.89x    frame=21852 fps=189 q=-0.0 size=N/A time=00:15:11.41 bitrate=N/A speed=7.89x    frame=21950 fps=189 q=-0.0 size=N/A time=00:15:15.49 bitrate=N/A speed=7.89x    frame=22048 fps=189 q=-0.0 size=N/A time=00:15:19.58 bitrate=N/A speed=7.89x    frame=22149 fps=189 q=-0.0 size=N/A time=00:15:23.79 bitrate=N/A speed=7.89x    frame=22240 fps=189 q=-0.0 size=N/A time=00:15:27.59 bitrate=N/A speed=7.89x    frame=22338 fps=189 q=-0.0 size=N/A time=00:15:31.68 bitrate=N/A speed=7.89x    frame=22438 fps=189 q=-0.0 size=N/A time=00:15:35.85 bitrate=N/A speed=7.89x    frame=22539 fps=189 q=-0.0 size=N/A time=00:15:40.06 bitrate=N/A speed=7.89x    frame=22634 fps=189 q=-0.0 size=N/A time=00:15:44.02 bitrate=N/A speed=7.89x    frame=22735 fps=189 q=-0.0 size=N/A time=00:15:48.23 bitrate=N/A speed=7.89x    frame=22830 fps=189 q=-0.0 size=N/A time=00:15:52.20 bitrate=N/A speed=7.89x    frame=22932 fps=189 q=-0.0 size=N/A time=00:15:56.45 bitrate=N/A speed=7.89x    frame=23030 fps=189 q=-0.0 size=N/A time=00:16:00.54 bitrate=N/A speed=7.89x    frame=23123 fps=189 q=-0.0 size=N/A time=00:16:04.42 bitrate=N/A speed=7.89x    frame=23227 fps=189 q=-0.0 size=N/A time=00:16:08.75 bitrate=N/A speed=7.89x    frame=23322 fps=189 q=-0.0 size=N/A time=00:16:12.72 bitrate=N/A speed=7.89x    frame=23419 fps=189 q=-0.0 size=N/A time=00:16:16.76 bitrate=N/A speed=7.89x    frame=23509 fps=189 q=-0.0 size=N/A time=00:16:20.52 bitrate=N/A speed=7.89x    frame=23615 fps=189 q=-0.0 size=N/A time=00:16:24.94 bitrate=N/A speed=7.89x    frame=23712 fps=189 q=-0.0 size=N/A time=00:16:28.98 bitrate=N/A speed=7.89x    frame=23807 fps=189 q=-0.0 size=N/A time=00:16:32.95 bitrate=N/A speed=7.89x    frame=23906 fps=189 q=-0.0 size=N/A time=00:16:37.07 bitrate=N/A speed=7.89x    frame=24003 fps=189 q=-0.0 size=N/A time=00:16:41.12 bitrate=N/A speed=7.89x    frame=24092 fps=189 q=-0.0 size=N/A time=00:16:44.83 bitrate=N/A speed=7.89x    frame=24200 fps=189 q=-0.0 size=N/A time=00:16:49.34 bitrate=N/A speed=7.89x    frame=24295 fps=189 q=-0.0 size=N/A time=00:16:53.30 bitrate=N/A speed=7.89x    frame=24392 fps=189 q=-0.0 size=N/A time=00:16:57.34 bitrate=N/A speed=7.89x    frame=24489 fps=189 q=-0.0 size=N/A time=00:17:01.39 bitrate=N/A speed=7.89x    frame=24591 fps=189 q=-0.0 size=N/A time=00:17:05.64 bitrate=N/A speed=7.89x    frame=24687 fps=189 q=-0.0 size=N/A time=00:17:09.65 bitrate=N/A speed=7.89x    frame=24786 fps=189 q=-0.0 size=N/A time=00:17:13.78 bitrate=N/A speed=7.89x    frame=24881 fps=189 q=-0.0 size=N/A time=00:17:17.74 bitrate=N/A speed=7.89x    frame=24979 fps=189 q=-0.0 size=N/A time=00:17:21.83 bitrate=N/A speed=7.89x    frame=25075 fps=189 q=-0.0 size=N/A time=00:17:25.83 bitrate=N/A speed=7.89x    frame=25175 fps=189 q=-0.0 size=N/A time=00:17:30.00 bitrate=N/A speed=7.89x    frame=25269 fps=189 q=-0.0 size=N/A time=00:17:33.92 bitrate=N/A speed=7.89x    frame=25368 fps=189 q=-0.0 size=N/A time=00:17:38.05 bitrate=N/A speed=7.89x    frame=25459 fps=189 q=-0.0 size=N/A time=00:17:41.85 bitrate=N/A speed=7.89x    frame=25558 fps=189 q=-0.0 size=N/A time=00:17:45.98 bitrate=N/A speed=7.89x    frame=25657 fps=189 q=-0.0 size=N/A time=00:17:50.11 bitrate=N/A speed=7.89x    frame=25753 fps=189 q=-0.0 size=N/A time=00:17:54.11 bitrate=N/A speed=7.89x    frame=25851 fps=189 q=-0.0 size=N/A time=00:17:58.20 bitrate=N/A speed=7.89x    frame=25941 fps=189 q=-0.0 size=N/A time=00:18:01.95 bitrate=N/A speed=7.89x    frame=26045 fps=189 q=-0.0 size=N/A time=00:18:06.29 bitrate=N/A speed=7.89x    frame=26141 fps=189 q=-0.0 size=N/A time=00:18:10.29 bitrate=N/A speed=7.89x    frame=26238 fps=189 q=-0.0 size=N/A time=00:18:14.34 bitrate=N/A speed=7.89x    frame=26335 fps=189 q=-0.0 size=N/A time=00:18:18.38 bitrate=N/A speed=7.89x    frame=26435 fps=189 q=-0.0 size=N/A time=00:18:22.55 bitrate=N/A speed=7.89x    frame=26525 fps=189 q=-0.0 size=N/A time=00:18:26.31 bitrate=N/A speed=7.89x    frame=26627 fps=189 q=-0.0 size=N/A time=00:18:30.56 bitrate=N/A speed=7.89x    frame=26718 fps=189 q=-0.0 size=N/A time=00:18:34.36 bitrate=N/A speed=7.89x    frame=26825 fps=189 q=-0.0 size=N/A time=00:18:38.82 bitrate=N/A speed=7.89x    frame=26916 fps=189 q=-0.0 size=N/A time=00:18:42.62 bitrate=N/A speed=7.89x    frame=27018 fps=189 q=-0.0 size=N/A time=00:18:46.87 bitrate=N/A speed=7.89x    frame=27119 fps=189 q=-0.0 size=N/A time=00:18:51.08 bitrate=N/A speed=7.89x    frame=27213 fps=189 q=-0.0 size=N/A time=00:18:55.00 bitrate=N/A speed=7.89x    frame=27306 fps=189 q=-0.0 size=N/A time=00:18:58.88 bitrate=N/A speed=7.89x    frame=27395 fps=189 q=-0.0 size=N/A time=00:19:02.59 bitrate=N/A speed=7.89x    frame=27496 fps=189 q=-0.0 size=N/A time=00:19:06.81 bitrate=N/A speed=7.89x    frame=27592 fps=189 q=-0.0 size=N/A time=00:19:10.81 bitrate=N/A speed=7.89x    frame=27688 fps=189 q=-0.0 size=N/A time=00:19:14.82 bitrate=N/A speed=7.89x    frame=27779 fps=189 q=-0.0 size=N/A time=00:19:18.61 bitrate=N/A speed=7.88x    frame=27876 fps=189 q=-0.0 size=N/A time=00:19:22.66 bitrate=N/A speed=7.88x    frame=27977 fps=189 q=-0.0 size=N/A time=00:19:26.87 bitrate=N/A speed=7.89x    frame=28075 fps=189 q=-0.0 size=N/A time=00:19:30.96 bitrate=N/A speed=7.89x    frame=28169 fps=189 q=-0.0 size=N/A time=00:19:34.88 bitrate=N/A speed=7.88x    frame=28267 fps=189 q=-0.0 size=N/A time=00:19:38.96 bitrate=N/A speed=7.88x    frame=28356 fps=189 q=-0.0 size=N/A time=00:19:42.68 bitrate=N/A speed=7.88x    frame=28463 fps=189 q=-0.0 size=N/A time=00:19:47.14 bitrate=N/A speed=7.89x    frame=28564 fps=189 q=-0.0 size=N/A time=00:19:51.35 bitrate=N/A speed=7.89x    frame=28661 fps=189 q=-0.0 size=N/A time=00:19:55.40 bitrate=N/A speed=7.89x    frame=28756 fps=189 q=-0.0 size=N/A time=00:19:59.36 bitrate=N/A speed=7.89x    frame=28850 fps=189 q=-0.0 size=N/A time=00:20:03.28 bitrate=N/A speed=7.88x    frame=28944 fps=189 q=-0.0 size=N/A time=00:20:07.20 bitrate=N/A speed=7.88x    frame=29051 fps=189 q=-0.0 size=N/A time=00:20:11.66 bitrate=N/A speed=7.89x    frame=29135 fps=189 q=-0.0 size=N/A time=00:20:15.17 bitrate=N/A speed=7.88x    frame=29235 fps=189 q=-0.0 size=N/A time=00:20:19.34 bitrate=N/A speed=7.88x    frame=29342 fps=189 q=-0.0 size=N/A time=00:20:23.80 bitrate=N/A speed=7.89x    frame=29440 fps=189 q=-0.0 size=N/A time=00:20:27.89 bitrate=N/A speed=7.89x    frame=29534 fps=189 q=-0.0 size=N/A time=00:20:31.81 bitrate=N/A speed=7.88x    frame=29628 fps=189 q=-0.0 size=N/A time=00:20:35.73 bitrate=N/A speed=7.88x    frame=29724 fps=189 q=-0.0 size=N/A time=00:20:39.73 bitrate=N/A speed=7.88x    frame=29830 fps=189 q=-0.0 size=N/A time=00:20:44.15 bitrate=N/A speed=7.89x    frame=29929 fps=189 q=-0.0 size=N/A time=00:20:48.28 bitrate=N/A speed=7.89x    frame=30029 fps=189 q=-0.0 size=N/A time=00:20:52.45 bitrate=N/A speed=7.89x    frame=30127 fps=189 q=-0.0 size=N/A time=00:20:56.54 bitrate=N/A speed=7.89x    frame=30223 fps=189 q=-0.0 size=N/A time=00:21:00.55 bitrate=N/A speed=7.89x    frame=30313 fps=189 q=-0.0 size=N/A time=00:21:04.30 bitrate=N/A speed=7.88x    frame=30419 fps=189 q=-0.0 size=N/A time=00:21:08.72 bitrate=N/A speed=7.89x    frame=30515 fps=189 q=-0.0 size=N/A time=00:21:12.72 bitrate=N/A speed=7.89x    frame=30610 fps=189 q=-0.0 size=N/A time=00:21:16.69 bitrate=N/A speed=7.89x    frame=30709 fps=189 q=-0.0 size=N/A time=00:21:20.82 bitrate=N/A speed=7.89x    frame=30809 fps=189 q=-0.0 size=N/A time=00:21:24.99 bitrate=N/A speed=7.89x    frame=30904 fps=189 q=-0.0 size=N/A time=00:21:28.95 bitrate=N/A speed=7.89x    frame=31001 fps=189 q=-0.0 size=N/A time=00:21:33.00 bitrate=N/A speed=7.89x    frame=31091 fps=189 q=-0.0 size=N/A time=00:21:36.75 bitrate=N/A speed=7.88x    frame=31190 fps=189 q=-0.0 size=N/A time=00:21:40.88 bitrate=N/A speed=7.88x    frame=31294 fps=189 q=-0.0 size=N/A time=00:21:45.22 bitrate=N/A speed=7.89x    frame=31393 fps=189 q=-0.0 size=N/A time=00:21:49.34 bitrate=N/A speed=7.89x    frame=31492 fps=189 q=-0.0 size=N/A time=00:21:53.47 bitrate=N/A speed=7.89x    frame=31586 fps=189 q=-0.0 size=N/A time=00:21:57.39 bitrate=N/A speed=7.89x    frame=31687 fps=189 q=-0.0 size=N/A time=00:22:01.61 bitrate=N/A speed=7.89x    frame=31772 fps=189 q=-0.0 size=N/A time=00:22:05.15 bitrate=N/A speed=7.88x    frame=31876 fps=189 q=-0.0 size=N/A time=00:22:09.49 bitrate=N/A speed=7.88x    frame=31980 fps=189 q=-0.0 size=N/A time=00:22:13.83 bitrate=N/A speed=7.89x    frame=32076 fps=189 q=-0.0 size=N/A time=00:22:17.83 bitrate=N/A speed=7.89x    frame=32171 fps=189 q=-0.0 size=N/A time=00:22:21.79 bitrate=N/A speed=7.89x    frame=32272 fps=189 q=-0.0 size=N/A time=00:22:26.01 bitrate=N/A speed=7.89x    frame=32363 fps=189 q=-0.0 size=N/A time=00:22:29.80 bitrate=N/A speed=7.88x    frame=32465 fps=189 q=-0.0 size=N/A time=00:22:34.06 bitrate=N/A speed=7.89x    frame=32562 fps=189 q=-0.0 size=N/A time=00:22:38.10 bitrate=N/A speed=7.89x    frame=32663 fps=189 q=-0.0 size=N/A time=00:22:42.31 bitrate=N/A speed=7.89x    frame=32761 fps=189 q=-0.0 size=N/A time=00:22:46.40 bitrate=N/A speed=7.89x    frame=32858 fps=189 q=-0.0 size=N/A time=00:22:50.45 bitrate=N/A speed=7.89x    frame=32950 fps=189 q=-0.0 size=N/A time=00:22:54.28 bitrate=N/A speed=7.89x    frame=33051 fps=189 q=-0.0 size=N/A time=00:22:58.50 bitrate=N/A speed=7.89x    frame=33150 fps=189 q=-0.0 size=N/A time=00:23:02.63 bitrate=N/A speed=7.89x    frame=33241 fps=189 q=-0.0 size=N/A time=00:23:06.42 bitrate=N/A speed=7.89x    frame=33347 fps=189 q=-0.0 size=N/A time=00:23:10.84 bitrate=N/A speed=7.89x    frame=33441 fps=189 q=-0.0 size=N/A time=00:23:14.76 bitrate=N/A speed=7.89x    frame=33538 fps=189 q=-0.0 size=N/A time=00:23:18.81 bitrate=N/A speed=7.89x    frame=33630 fps=189 q=-0.0 size=N/A time=00:23:22.65 bitrate=N/A speed=7.89x    frame=33732 fps=189 q=-0.0 size=N/A time=00:23:26.90 bitrate=N/A speed=7.89x    frame=33832 fps=189 q=-0.0 size=N/A time=00:23:31.07 bitrate=N/A speed=7.89x    frame=33929 fps=189 q=-0.0 size=N/A time=00:23:35.12 bitrate=N/A speed=7.89x    frame=34022 fps=189 q=-0.0 size=N/A time=00:23:39.00 bitrate=N/A speed=7.89x    [Parsed_psnr_10 @ 0000020e8c0b9d80] PSNR y:45.500020 u:50.646862 v:50.851892 average:46.656475 min:39.995756 max:inf
[out#0/null @ 0000020e88054280] video:14638KiB audio:266424KiB subtitle:0KiB other streams:0KiB global headers:0KiB muxing overhead: unknown
frame=34067 fps=189 q=-0.0 Lsize=N/A time=00:23:40.87 bitrate=N/A speed=7.89x    
